<?xml version="1.0" encoding="UTF-8" standalone="no"?>
<!-- Created with Inkscape (http://www.inkscape.org/) -->

<svg
   xmlns:dc="http://purl.org/dc/elements/1.1/"
   xmlns:cc="http://creativecommons.org/ns#"
   xmlns:rdf="http://www.w3.org/1999/02/22-rdf-syntax-ns#"
   xmlns:svg="http://www.w3.org/2000/svg"
   xmlns="http://www.w3.org/2000/svg"
   xmlns:xlink="http://www.w3.org/1999/xlink"
   xmlns:sodipodi="http://sodipodi.sourceforge.net/DTD/sodipodi-0.dtd"
   xmlns:inkscape="http://www.inkscape.org/namespaces/inkscape"
   width="210mm"
   height="297mm"
   viewBox="0 0 744.09448819 1052.3622047"
   id="svg2"
   version="1.1"
   inkscape:version="0.91 r13725"
   sodipodi:docname="icons.svg"
   inkscape:export-filename="/home/ckhung/git/potluckmap/lib/icons.png"
   inkscape:export-xdpi="90"
   inkscape:export-ydpi="90">
  <defs
     id="defs4">
    <linearGradient
       id="linearGradient4237"
       inkscape:collect="always">
      <stop
         id="stop4239"
         offset="0"
         style="stop-color:#d252b9;stop-opacity:0" />
      <stop
         id="stop4241"
         offset="1"
         style="stop-color:#d252b9;stop-opacity:1" />
    </linearGradient>
    <linearGradient
       id="linearGradient4225"
       inkscape:collect="always">
      <stop
         id="stop4227"
         offset="0"
         style="stop-color:#37a7d9;stop-opacity:0" />
      <stop
         id="stop4229"
         offset="1"
         style="stop-color:#38aadd;stop-opacity:1" />
    </linearGradient>
    <linearGradient
       id="linearGradient4219"
       inkscape:collect="always">
      <stop
         id="stop4221"
         offset="0"
         style="stop-color:#72b026;stop-opacity:0" />
      <stop
         id="stop4223"
         offset="1"
         style="stop-color:#71ae26;stop-opacity:1" />
    </linearGradient>
    <linearGradient
       id="linearGradient4201"
       inkscape:collect="always">
      <stop
         id="stop4203"
         offset="0"
         style="stop-color:#f69730;stop-opacity:0" />
      <stop
         id="stop4205"
         offset="1"
         style="stop-color:#f59630;stop-opacity:1" />
    </linearGradient>
    <linearGradient
       inkscape:collect="always"
       id="linearGradient4184">
      <stop
         style="stop-color:#ff0000;stop-opacity:0"
         offset="0"
         id="stop4186" />
      <stop
         style="stop-color:#d63e2a;stop-opacity:1"
         offset="1"
         id="stop4188" />
    </linearGradient>
    <linearGradient
       inkscape:collect="always"
       xlink:href="#linearGradient4184"
       id="linearGradient4190"
       x1="32.983589"
       y1="211.30602"
       x2="68.579628"
       y2="211.30602"
       gradientUnits="userSpaceOnUse"
       gradientTransform="translate(0,-0.26245)" />
    <linearGradient
       inkscape:collect="always"
       xlink:href="#linearGradient4201"
       id="linearGradient4199"
       gradientUnits="userSpaceOnUse"
       x1="32.983589"
       y1="211.30602"
       x2="68.579628"
       y2="211.30602"
       gradientTransform="translate(47.37305,-0.26245458)" />
    <linearGradient
       inkscape:collect="always"
       xlink:href="#linearGradient4219"
       id="linearGradient4209"
       gradientUnits="userSpaceOnUse"
       x1="32.983589"
       y1="211.30602"
       x2="68.579628"
       y2="211.30602"
       gradientTransform="translate(94.74611,-0.26245458)" />
    <linearGradient
       inkscape:collect="always"
       xlink:href="#linearGradient4225"
       id="linearGradient4213"
       gradientUnits="userSpaceOnUse"
       gradientTransform="translate(142.11917,-0.26245543)"
       x1="32.983589"
       y1="211.30602"
       x2="68.579628"
       y2="211.30602" />
    <linearGradient
       inkscape:collect="always"
       xlink:href="#linearGradient4237"
       id="linearGradient4217"
       gradientUnits="userSpaceOnUse"
       gradientTransform="translate(189.49221,-0.26245543)"
       x1="32.983589"
       y1="211.30602"
       x2="68.579628"
       y2="211.30602" />
  </defs>
  <sodipodi:namedview
     id="base"
     pagecolor="#ffffff"
     bordercolor="#666666"
     borderopacity="1.0"
     inkscape:pageopacity="0.0"
     inkscape:pageshadow="2"
     inkscape:zoom="3.8101831"
     inkscape:cx="102.83323"
     inkscape:cy="841.05618"
     inkscape:document-units="px"
     inkscape:current-layer="layer1"
     showgrid="false"
     inkscape:window-width="1280"
     inkscape:window-height="975"
     inkscape:window-x="0"
     inkscape:window-y="0"
     inkscape:window-maximized="1" />
  <metadata
     id="metadata7">
    <rdf:RDF>
      <cc:Work
         rdf:about="">
        <dc:format>image/svg+xml</dc:format>
        <dc:type
           rdf:resource="http://purl.org/dc/dcmitype/StillImage" />
        <dc:title></dc:title>
      </cc:Work>
    </rdf:RDF>
  </metadata>
  <g
     inkscape:label="Layer 1"
     inkscape:groupmode="layer"
     id="layer1">
    <image
       sodipodi:absref="/home/ckhung/git/potluckmap/lib/awesome-markers.png"
       xlink:href="awesome-markers.png"
       width="360"
       height="46"
       preserveAspectRatio="none"
       id="image4179"
       x="28.571421"
       y="132.21936" />
    <path
       style="fill:url(#linearGradient4190);fill-opacity:1;stroke:#d63e2a;stroke-opacity:1"
       d="m 31.320822,199.06796 c 0,0 28.65783,-1.83066 34.575162,1.04982 5.917331,2.88048 10.235728,10.92579 10.235728,10.92579 0,0 -1.956306,6.47059 -9.448365,10.66334 -7.492059,4.19275 -35.362525,1.31227 -35.362525,1.31227 0,0 8.923456,-6.9974 8.923456,-11.97561 0,-4.97821 -8.923456,-11.97561 -8.923456,-11.97561 z"
       id="rect4182"
       inkscape:connector-curvature="0"
       sodipodi:nodetypes="czczcsc" />
    <path
       sodipodi:nodetypes="czczcsc"
       inkscape:connector-curvature="0"
       id="path4197"
       d="m 78.693872,199.06796 c 0,0 28.657838,-1.83066 34.575168,1.04982 5.91733,2.88048 10.23573,10.92579 10.23573,10.92579 0,0 -1.95631,6.47059 -9.44837,10.66334 -7.49206,4.19275 -35.362528,1.31227 -35.362528,1.31227 0,0 8.923456,-6.9974 8.923456,-11.97561 0,-4.97821 -8.923456,-11.97561 -8.923456,-11.97561 z"
       style="fill:url(#linearGradient4199);fill-opacity:1;stroke:#f69730;stroke-opacity:1" />
    <path
       sodipodi:nodetypes="czczcsc"
       inkscape:connector-curvature="0"
       id="path4207"
       d="m 126.06693,199.06796 c 0,0 28.65783,-1.83066 34.57517,1.04982 5.91733,2.88048 10.23572,10.92579 10.23572,10.92579 0,0 -1.9563,6.47059 -9.44836,10.66334 -7.49206,4.19275 -35.36253,1.31227 -35.36253,1.31227 0,0 8.92346,-6.9974 8.92346,-11.97561 0,-4.97821 -8.92346,-11.97561 -8.92346,-11.97561 z"
       style="fill:url(#linearGradient4209);fill-opacity:1;stroke:#72b026;stroke-opacity:1" />
    <path
       style="fill:url(#linearGradient4213);fill-opacity:1;stroke:#37a7da;stroke-opacity:1"
       d="m 173.43998,199.06796 c 0,0 28.65783,-1.83066 34.57517,1.04982 5.91733,2.88048 10.23572,10.92579 10.23572,10.92579 0,0 -1.9563,6.47059 -9.44836,10.66334 -7.49206,4.19275 -35.36253,1.31227 -35.36253,1.31227 0,0 8.92346,-6.9974 8.92346,-11.97561 0,-4.97821 -8.92346,-11.97561 -8.92346,-11.97561 z"
       id="path4211"
       inkscape:connector-curvature="0"
       sodipodi:nodetypes="czczcsc" />
    <path
       sodipodi:nodetypes="czczcsc"
       inkscape:connector-curvature="0"
       id="path4215"
       d="m 220.81302,199.06796 c 0,0 28.65783,-1.83066 34.57517,1.04982 5.91733,2.88048 10.23572,10.92579 10.23572,10.92579 0,0 -1.9563,6.47059 -9.44836,10.66334 -7.49206,4.19275 -35.36253,1.31227 -35.36253,1.31227 0,0 8.92346,-6.9974 8.92346,-11.97561 0,-4.97821 -8.92346,-11.97561 -8.92346,-11.97561 z"
       style="fill:url(#linearGradient4217);fill-opacity:1;stroke:#d051b8;stroke-opacity:1" />
  </g>
</svg>
